<?xml version="1.0" encoding="utf-8"?>
<!-- Generator: Adobe Illustrator 26.5.0, SVG Export Plug-In . SVG Version: 6.00 Build 0)  -->
<svg version="1.1" id="Layer_2_00000021822737776981075250000002448363302421939643_"
	 xmlns="http://www.w3.org/2000/svg" xmlns:xlink="http://www.w3.org/1999/xlink" x="0px" y="0px" viewBox="0 0 250 87.7"
	 style="enable-background:new 0 0 250 87.7;" xml:space="preserve">
<style type="text/css">
	.st0{fill-rule:evenodd;clip-rule:evenodd;fill:#C2563F;}
	.st1{fill-rule:evenodd;clip-rule:evenodd;fill:#5B5CA6;}
</style>
<g id="Editable_content">
	<g>
		<path class="st0" d="M20.4,25.5L12.1,2.4c-0.3-0.7-0.6-1.5-0.6-2.4V0H3.6v0.2C5.7,1.5,5.2,3.6,5,5L2.5,27
			c-0.4,2.8-0.6,5.4-2.5,7.3v0.2h7.2v-0.2c-2.1-1.1-1.8-3.4-1.4-6.6L8.4,5.2l8.5,23.6c1.1,2.9,1.7,4.3,3.9,6.3l10-30l2.5,25.2
			c0,1.8-0.3,3.4-1.8,3.9v0.2H40v-0.2c-1.8-1.5-2-2.9-2.3-5.3L34.8,3.2c0-1.2,0.3-2.7,1.4-3.1V0h-7.7v0.1c0,1.1-0.3,2.1-0.7,3.2
			L20.4,25.5"/>
		<path class="st0" d="M47.6,7.2c0-1.5-1.2-2.9-2.8-2.9c-1.6,0-3,1.1-3,2.7c0,1.7,1.3,3.1,3,3.1C46.4,10.2,47.6,8.8,47.6,7.2 M41,13
			v0.1c2,1.2,1.8,2.8,1.8,5v11.1c0,2.1,0.3,3.9-1.8,5v0.1h7.8v-0.1c-2.1-1.2-1.8-2.9-1.8-5v-17h-0.1c-0.8,0.7-2,0.7-3,0.7L41,13
			L41,13z"/>
		<path class="st0" d="M67.9,12.9c-1.6-0.4-3.4-0.6-5-0.6c-7,0-13.3,3.9-13.3,11.9c0,6.1,5.6,10.8,12.8,10.8c2.1,0,4.2-0.2,6.2-0.9
			l2.4-4.4h-0.1C69,31,66.4,32,64,32c-5.2,0-9.7-3.5-9.7-8.9c0-4.4,3.3-7.6,7.8-7.6c2.1,0,4.3,0.7,5.7,2.3H68L67.9,12.9"/>
		<path class="st0" d="M71.3,13v0.1c2,1.2,1.7,2.8,1.7,5v11.1c0,2.1,0.3,3.9-1.8,5v0.1h7.8v-0.1c-2-1.2-1.8-2.9-1.8-5v-6.5
			c0-4.8,1.5-6.7,5-6.7c0.8,0,1.6,0.2,2.1,0.7v-4.3l-1.7-0.1c-2.3,0-4.5,1.4-5.5,3.5v-3.5h-0.1C76.5,13,75.4,13,74.3,13L71.3,13"/>
		<path class="st0" d="M94.3,32c-4.8,0-7.3-4.6-7.3-8.9s2.8-7.6,7.1-7.6c5,0,7.4,4.5,7.4,9C101.6,28.6,98.6,32,94.3,32 M94.1,35
			c6.6,0,12.2-4.9,12.2-11.6c0-3.2-1.4-6.2-3.8-8.3c-2.2-2-4.8-2.7-7.8-2.7c-6.7,0-12.4,4.5-12.4,11.5C82.3,30.5,87.7,35,94.1,35
			L94.1,35z"/>
		<path class="st0" d="M122.3,13c-1.7-0.5-3.5-0.6-5.2-0.6c-4,0-9.1,1.3-9.1,6.2c0,7.1,12.6,5.6,12.6,10.3c0,2.4-3.2,3-5.1,3
			c-3.2,0-6.1-0.9-8.8-2.6l1.6,4.6c2,0.8,4,1.1,6.1,1.1c6,0,10.4-2.9,10.4-7.3c0-7.4-12.6-5.9-12.6-10.1c0-1.9,2.8-2.2,4.3-2.2
			c2,0,4,0.6,5.7,1.5L122.3,13"/>
		<path class="st0" d="M144.4,12.9c-1.6-0.4-3.4-0.6-5-0.6c-7,0-13.3,3.9-13.3,11.9c0,6.1,5.6,10.8,12.8,10.8c2.1,0,4.2-0.2,6.2-0.9
			l2.4-4.4h-0.1c-1.8,1.4-4.4,2.3-6.8,2.3c-5.2,0-9.7-3.5-9.7-8.9c0-4.4,3.3-7.6,7.8-7.6c2.1,0,4.3,0.7,5.7,2.3h0.1L144.4,12.9"/>
		<path class="st0" d="M159.6,32c-4.8,0-7.3-4.6-7.3-8.9s2.8-7.6,7.1-7.6c5,0,7.4,4.5,7.4,9C166.8,28.6,163.9,32,159.6,32 M159.4,35
			c6.6,0,12.2-4.9,12.2-11.6c0-3.2-1.4-6.2-3.8-8.3c-2.2-2-4.8-2.7-7.8-2.7c-6.7,0-12.4,4.5-12.4,11.5C147.6,30.5,153,35,159.4,35
			L159.4,35z"/>
		<path class="st0" d="M172.2,13v0.1c2,1.1,1.8,2.8,1.8,5v20.7c0,2.1,0.3,3.8-1.8,5V44h7.8v-0.1c-2-1.2-1.8-2.8-1.8-5v-16
			c0-1.9,0-3.5,1.3-5c1.3-1.4,3.2-2.2,5.2-2.2c4.8,0,7.1,4,7.1,8.3c0,4.7-2.5,8-7.4,8c-1.8,0-3.5-0.6-5.1-1.4l2.5,3.8
			c1.1,0.4,2.2,0.6,3.5,0.6c6.5,0,11.2-5.1,11.2-11.6c0-6.1-4.2-11.1-10.7-11.1c-2.6,0-6.1,1.1-7.6,3.3v-3.3H178
			c-0.6,0.5-1.8,0.6-2.8,0.6L172.2,13"/>
		<path class="st0" d="M209.1,30.3l-6.9-15.4c-0.5-1.2-1.4-1.9-3.1-1.9h-4v0.1c2.2,0.8,2.8,2.5,3.7,4.5l5.7,12.4
			c0.9,2,0.9,2.2,2.4,3.7l0.2,0.2l-0.3,0.7c-1,2.6-2.4,6.1-5.6,6.1c-1,0-1.8-0.6-2.6-1.1l-4.2,3c1.8,0.7,3.5,1.2,5.5,1.2
			c4.4,0,7.6-1.8,10.2-7.8l9.7-23.1h-6.5v0.1c2.2,1,1.2,3.5,0.5,5.3L209.1,30.3"/>
		<path class="st1" d="M227.2,30.2h-2.6l1.3-3.4L227.2,30.2 M227.6,31.1l0.7,1.9c0.4,0.9,0.5,1.1-0.2,1.4v0h2.7v0
			c-0.8-0.4-1-1.1-1.3-1.9l-2.8-6.8h-2.1v0c0.6,0.2,0.4,0.8,0.2,1.2l-2.2,5.6c-0.3,0.8-0.5,1.5-1.3,1.9v0h2.5v0
			c-0.6-0.2-0.5-0.6-0.3-1.4l0.7-1.9L227.6,31.1L227.6,31.1z"/>
		<path class="st1" d="M233.2,27.5l4.6,5.8c0.6,0.8,1,1.2,1.9,1.5v-7.5c0-0.7,0-1.3,0.7-1.7v0h-2.3v0c0.7,0.4,0.7,0.9,0.7,1.7v5
			l-4.9-6.2l-0.2-0.3c-0.1-0.1-0.1-0.2-0.2-0.3l0,0l-1.9,0v0c0.7,0.4,0.7,0.9,0.7,1.7v5.3c0,0.7,0,1.3-0.7,1.7v0h2.4v0
			c-0.7-0.4-0.7-0.9-0.7-1.7L233.2,27.5"/>
		<path class="st1" d="M243.3,26.8c0.4-0.1,0.8-0.1,1.2-0.1c2.2,0,3.5,1.2,3.5,3.5s-1.8,3.3-3.8,3.3c-0.3,0-0.6,0-1-0.1V26.8
			 M241.9,32.5c0,0.8,0.1,1.4-0.6,1.9v0h3.2c3,0,5-1.8,5-4.5s-1.9-4.3-4.9-4.3h-3.3v0c0.7,0.2,0.6,1.2,0.6,1.8
			C241.9,27.5,241.9,32.5,241.9,32.5z"/>
		<path class="st1" d="M20.4,69.3l-8.4-23.1c-0.3-0.7-0.6-1.5-0.6-2.4v-0.1H3.6v0.2c2,1.3,1.6,3.4,1.4,4.9L2.5,70.7
			c-0.4,2.8-0.6,5.4-2.5,7.3v0.2h7.2v-0.2c-2.1-1.1-1.8-3.4-1.4-6.6L8.4,49l8.5,23.6c1.1,2.9,1.7,4.3,3.9,6.3l10-30l2.5,25.2
			c0,1.8-0.3,3.4-1.8,3.9v0.2H40v-0.2c-1.8-1.5-2-2.9-2.3-5.3L34.8,47c0-1.2,0.3-2.7,1.4-3.1v-0.2h-7.7v0.1c0,1.1-0.3,2.1-0.7,3.2
			L20.4,69.3"/>
		<path class="st1" d="M48,51c0-1.5-1.2-2.9-2.8-2.9c-1.6,0-3,1.1-3,2.7c0,1.7,1.3,3.1,3,3.1C46.8,54,48,52.6,48,51 M41.5,56.8v0.1
			c2.1,1.2,1.8,2.8,1.8,5V73c0,2.1,0.3,3.9-1.8,5v0.1h7.8v-0.1c-2.1-1.2-1.8-2.9-1.8-5V56h-0.1c-0.8,0.7-2,0.7-3,0.7
			C44.3,56.8,41.5,56.8,41.5,56.8z"/>
		<path class="st1" d="M68.4,56.7c-1.6-0.4-3.4-0.6-5-0.6c-7,0-13.3,3.9-13.3,11.9c0,6.1,5.6,10.8,12.8,10.8c2.1,0,4.2-0.2,6.2-0.9
			l2.4-4.4h-0.1c-1.8,1.4-4.4,2.3-6.8,2.3c-5.2,0-9.7-3.5-9.7-8.9c0-4.4,3.3-7.6,7.8-7.6c2.1,0,4.3,0.7,5.7,2.3h0.1L68.4,56.7"/>
		<path class="st1" d="M71.8,56.8v0.1c2,1.2,1.7,2.8,1.7,5V73c0,2.1,0.3,3.9-1.8,5v0.1h7.8v-0.1c-2.1-1.2-1.8-2.9-1.8-5v-6.5
			c0-4.8,1.5-6.7,5-6.7c0.8,0,1.6,0.2,2.1,0.7v-4.3l-1.7-0.1c-2.3,0-4.5,1.4-5.5,3.5v-3.5h-0.1c-0.6,0.6-1.8,0.6-2.8,0.6L71.8,56.8"
			/>
		<path class="st1" d="M94.8,75.7c-4.8,0-7.3-4.6-7.3-8.9s2.8-7.6,7.1-7.6c5,0,7.4,4.5,7.4,9C102,72.4,99.1,75.7,94.8,75.7
			 M94.5,78.8c6.6,0,12.2-4.9,12.2-11.6c0-3.2-1.4-6.2-3.8-8.3c-2.2-2-4.8-2.7-7.8-2.7c-6.7,0-12.4,4.5-12.4,11.5
			C82.8,74.3,88.2,78.8,94.5,78.8L94.5,78.8z"/>
		<path class="st1" d="M129.7,75.7c-3.9-0.4-4-1.8-4-5.5v-7c0-5.6-3.9-7.1-8.9-7.1l-3,0.3l-3.1,4.7c2.1-1,4-1.9,6.3-1.9
			c1.7,0,4.5,0.7,4.5,3c0,5.1-13.9,1.1-13.9,9.7c0,3.9,3.3,6.9,8,6.9c0.8,0,1.6-0.1,2.4-0.2l2.7-3.5c-1.1,0.3-2.2,0.6-3.4,0.6
			c-2.5,0-5.1-0.9-5.1-3.8c0-2.9,2.5-3.4,4.8-3.9c1.5-0.4,3.1-0.7,4.5-1.4V74c0,3.7,3.1,4.7,6.2,4.9L129.7,75.7"/>
		<path class="st1" d="M129.6,56.8v0.1c2,1.2,1.8,2.9,1.8,5V73c0,2.1,0.3,3.9-1.8,5v0.1h7.8v-0.1c-2-1.2-1.8-2.8-1.8-5v-8.2
			c0-2.7,0.7-5.6,4.9-5.6s5.6,2.6,5.6,7.6v6.3c0,2.1,0.3,3.8-1.8,5v0.1h7.8v-0.1c-2-1.2-1.8-2.8-1.8-5v-6.8c0-2.2,0.1-5.1-1.2-6.9
			c-1.5-2.2-4.5-3.2-7.1-3.2c-3,0-4.9,1.4-6.6,3.6v-3.6h-0.1c-1,0.6-2.1,0.6-3.1,0.6L129.6,56.8"/>
		<path class="st1" d="M174.7,75.7c-3.9-0.4-4-1.8-4-5.5v-7c0-5.6-3.9-7.1-8.9-7.1l-3,0.3l-3.1,4.7c2.1-1,4-1.9,6.3-1.9
			c1.7,0,4.5,0.7,4.5,3c0,5.1-13.9,1.1-13.9,9.7c0,3.9,3.3,6.9,8,6.9c0.8,0,1.6-0.1,2.4-0.2l2.7-3.5c-1.1,0.3-2.2,0.6-3.4,0.6
			c-2.5,0-5.1-0.9-5.1-3.8c0-2.9,2.5-3.4,4.8-3.9c1.5-0.4,3.1-0.7,4.5-1.4V74c0,3.7,3.1,4.7,6.2,4.9L174.7,75.7"/>
		<path class="st1" d="M174.8,47.5v0.1c2,1.2,1.7,2.9,1.7,5V73c0,2.1,0.3,3.9-1.7,5v0.1h7.7v-0.1c-2.1-1.2-1.7-2.9-1.7-5V46.8h-0.1
			c-0.7,0.8-1.9,0.7-3,0.7L174.8,47.5"/>
		<path class="st1" d="M195.8,74.1l-6.9-15.4c-0.5-1.2-1.4-1.9-3.1-1.9h-4v0.1c2.2,0.8,2.8,2.5,3.7,4.5l5.7,12.4
			c0.9,2,0.9,2.2,2.4,3.7l0.2,0.2l-0.3,0.7c-1,2.6-2.4,6.1-5.6,6.1c-1,0-1.8-0.6-2.6-1.1l-4.2,3c1.8,0.7,3.5,1.2,5.5,1.2
			c4.4,0,7.6-1.8,10.2-7.8l9.7-23.1H200v0.1c2.2,1,1.2,3.5,0.5,5.3L195.8,74.1"/>
		<path class="st1" d="M220.9,56.8c-1.7-0.5-3.5-0.6-5.2-0.6c-4,0-9.1,1.3-9.1,6.2c0,7.1,12.6,5.6,12.6,10.3c0,2.4-3.2,3-5.1,3
			c-3.2,0-6.1-0.9-8.8-2.6l1.6,4.6c2,0.8,4,1.1,6.1,1.1c6,0,10.4-2.9,10.4-7.3c0-7.4-12.6-5.9-12.6-10.1c0-1.9,2.8-2.2,4.3-2.2
			c2.1,0,4,0.6,5.7,1.5L220.9,56.8"/>
		<path class="st1" d="M230.5,51c0-1.5-1.2-2.9-2.8-2.9s-3,1.1-3,2.7c0,1.7,1.3,3.1,3,3.1C229.3,54,230.5,52.6,230.5,51 M224,56.8
			v0.1c2.1,1.2,1.8,2.8,1.8,5V73c0,2.1,0.3,3.9-1.8,5v0.1h7.8v-0.1c-2-1.2-1.8-2.9-1.8-5V56h-0.1c-0.8,0.7-2,0.7-3,0.7L224,56.8
			L224,56.8z"/>
		<path class="st1" d="M247.4,56.8c-1.7-0.5-3.5-0.6-5.2-0.6c-4,0-9.1,1.3-9.1,6.2c0,7.1,12.6,5.6,12.6,10.3c0,2.4-3.2,3-5.1,3
			c-3.2,0-6.1-0.9-8.8-2.6l1.6,4.6c2,0.8,4,1.1,6.1,1.1c6,0,10.4-2.9,10.4-7.3c0-7.4-12.6-5.9-12.6-10.1c0-1.9,2.8-2.2,4.3-2.2
			c2,0,4,0.6,5.7,1.5L247.4,56.8"/>
	</g>
</g>
</svg>
